<?xml version="1.0" encoding="UTF-8" standalone="no"?>
<!-- Created with Inkscape (http://www.inkscape.org/) -->

<svg
   xmlns:dc="http://purl.org/dc/elements/1.1/"
   xmlns:cc="http://creativecommons.org/ns#"
   xmlns:rdf="http://www.w3.org/1999/02/22-rdf-syntax-ns#"
   xmlns:svg="http://www.w3.org/2000/svg"
   xmlns="http://www.w3.org/2000/svg"
   xmlns:sodipodi="http://sodipodi.sourceforge.net/DTD/sodipodi-0.dtd"
   xmlns:inkscape="http://www.inkscape.org/namespaces/inkscape"
   width="24"
   height="24"
   id="svg2"
   version="1.1"
   inkscape:version="0.48.4 r9939"
   sodipodi:docname="quickhide_unselected_objects.svg">
  <defs
     id="defs4">
    <inkscape:perspective
       sodipodi:type="inkscape:persp3d"
       inkscape:vp_x="33.69534 : 28.226527 : 1"
       inkscape:vp_y="0 : -6022.8726 : 0"
       inkscape:vp_z="121.24697 : 15.220813 : 1"
       inkscape:persp3d-origin="67.874704 : -1.0937986 : 1"
       id="perspective2995" />
  </defs>
  <sodipodi:namedview
     id="base"
     pagecolor="#ffffff"
     bordercolor="#666666"
     borderopacity="1.0"
     inkscape:pageopacity="0.0"
     inkscape:pageshadow="2"
     inkscape:zoom="15.839192"
     inkscape:cx="14.784469"
     inkscape:cy="16.545286"
     inkscape:document-units="px"
     inkscape:current-layer="g3846"
     showgrid="false"
     inkscape:window-width="1283"
     inkscape:window-height="782"
     inkscape:window-x="2083"
     inkscape:window-y="131"
     inkscape:window-maximized="0" />
  <metadata
     id="metadata7">
    <rdf:RDF>
      <cc:Work
         rdf:about="">
        <dc:format>image/svg+xml</dc:format>
        <dc:type
           rdf:resource="http://purl.org/dc/dcmitype/StillImage" />
        <dc:title></dc:title>
      </cc:Work>
    </rdf:RDF>
  </metadata>
  <g
     inkscape:label="Layer 1"
     inkscape:groupmode="layer"
     id="layer1"
     transform="translate(0,-1028.3622)">
    <g
       id="g3846"
       transform="translate(0.5,-0.5)"
       style="stroke:#ff0000;stroke-opacity:1">
      <g
         id="g3853"
         transform="translate(0,-2.7071381e-5)"
         style="stroke:#00ff00;stroke-opacity:1">
        <rect
           style="fill:none;stroke:#00ff00;stroke-width:1.07236671000000010;stroke-linecap:butt;stroke-linejoin:miter;stroke-miterlimit:4;stroke-opacity:1;stroke-dasharray:2.14473334000000020, 2.14473334000000020;stroke-dashoffset:0"
           id="rect3025"
           width="14.927633"
           height="14.927633"
           x="2.0361834"
           y="1035.3984"
           clip-path="none" />
        <path
           style="fill:none;stroke:#00ff00;stroke-width:1;stroke-linecap:butt;stroke-linejoin:miter;stroke-miterlimit:4;stroke-opacity:1;stroke-dasharray:2, 1;stroke-dashoffset:0"
           d="M 2,7 8,3"
           id="path3070"
           inkscape:connector-curvature="0"
           sodipodi:nodetypes="cc"
           transform="translate(0,1028.3622)" />
        <path
           sodipodi:nodetypes="cc"
           inkscape:connector-curvature="0"
           id="path3072"
           d="m 17,1035.3622 4,-4"
           style="fill:none;stroke:#00ff00;stroke-width:1;stroke-linecap:butt;stroke-linejoin:miter;stroke-miterlimit:4;stroke-opacity:1;stroke-dasharray:2, 1;stroke-dashoffset:0" />
        <path
           style="fill:none;stroke:#00ff00;stroke-width:1;stroke-linecap:butt;stroke-linejoin:miter;stroke-miterlimit:4;stroke-opacity:1;stroke-dasharray:2, 1;stroke-dashoffset:0"
           d="m 17,22 4,-6"
           id="path3074"
           inkscape:connector-curvature="0"
           transform="translate(0,1028.3622)"
           sodipodi:nodetypes="cc" />
        <path
           style="fill:none;stroke:#00ff00;stroke-width:1;stroke-linecap:butt;stroke-linejoin:miter;stroke-miterlimit:4;stroke-opacity:1;stroke-dasharray:2, 1;stroke-dashoffset:0"
           d="m 8,3 c 0.4419417,0 13,0 13,0 l 0,13"
           id="path3076"
           inkscape:connector-curvature="0"
           transform="translate(0,1028.3622)"
           sodipodi:nodetypes="ccc" />
      </g>
      <path
         id="_75181136"
         class="fil0 str0"
         d="m 14.815164,1042.9277 c -0.319854,0.5505 -0.709593,1.0198 -1.17348,1.4099 -1.112059,0.9447 -2.49527,1.416 -4.1453458,1.416 -1.650076,0 -3.035387,-0.4713 -4.151709,-1.416 -0.463881,-0.3901 -0.855746,-0.8594 -1.179831,-1.4099 0.324085,-0.5526 0.71595,-1.0239 1.179831,-1.4181 1.116322,-0.9447 2.501633,-1.416 4.151709,-1.416 1.6500758,0 3.0332868,0.4713 4.1453458,1.416 0.463887,0.3942 0.853626,0.8655 1.17348,1.4181 z"
         inkscape:connector-curvature="0"
         style="fill:#eff0f1;fill-rule:evenodd;stroke:#1f1a17;stroke-width:0.0047492" />
      <path
         id="_75708432"
         class="fil1 str0"
         d="m 11.292224,1042.9552 c 0,0.4885 -0.178338,0.9071 -0.532445,1.2561 -0.35667,0.349 -0.7856858,0.5221 -1.2845198,0.5221 -0.503993,0 -0.933041,-0.1733 -1.287124,-0.5221 -0.354075,-0.3491 -0.529846,-0.7676 -0.529846,-1.2561 0,-0.2172 0.03877,-0.429 0.113744,-0.6306 l 1.855705,0.8425 -0.870984,-1.8402 c 0.227424,-0.101 0.465228,-0.1524 0.718505,-0.1524 0.498834,0 0.9278498,0.1733 1.2845198,0.5221 0.354107,0.3491 0.532445,0.7677 0.532445,1.2587 z m 0.584094,0 c 0,-0.6462 -0.23518,-1.1993 -0.705591,-1.6593 -0.467783,-0.4601 -1.033809,-0.6901 -1.6954678,-0.6901 -0.348923,0 -0.679739,0.072 -0.992481,0.2119 l -0.248116,-0.566 c -1.832478,0.3129 -3.173868,1.2121 -4.021593,2.7035 0.248117,0.4342 0.545328,0.8193 0.894244,1.1578 0.842595,0.8116 1.876404,1.3233 3.104089,1.5379 -0.529853,-0.2378 -0.956308,-0.5997 -1.279365,-1.083 -0.323064,-0.4859 -0.485894,-1.0235 -0.485894,-1.6127 0,-0.3593 0.06459,-0.7082 0.188652,-1.0468 l 0.607392,0.1889 c -0.11115,0.2792 -0.167992,0.5634 -0.167992,0.858 0,0.6488 0.23518,1.2044 0.705592,1.6619 0.467789,0.4549 1.033809,0.6849 1.695473,0.6849 0.6616588,0 1.2276848,-0.2299 1.6954678,-0.6849 0.470413,-0.4575 0.705591,-1.0131 0.705591,-1.6619 z m 2.861126,0 c -0.245522,-0.4342 -0.547921,-0.8245 -0.899429,-1.1682 -0.850317,-0.8168 -1.894479,-1.3285 -3.135071,-1.5353 0.540161,0.23 0.974369,0.5867 1.302624,1.0674 0.333408,0.4937 0.498802,1.039 0.498802,1.6361 0,0.5892 -0.162832,1.1269 -0.488487,1.6128 -0.325654,0.4833 -0.754672,0.8451 -1.284519,1.0829 1.827286,-0.3153 3.163516,-1.2122 4.00608,-2.6957 z m 1.235438,0 c -0.390281,0.7004 -0.865824,1.2974 -1.431844,1.7937 -1.356903,1.2018 -3.044655,1.8014 -5.0580248,1.8014 -2.013377,0 -3.70369,-0.5996 -5.065785,-1.8014 -0.56602,-0.4963 -1.044155,-1.0933 -1.439597,-1.7937 0.395442,-0.703 0.873577,-1.3027 1.439597,-1.804 1.362095,-1.2019 3.052408,-1.8015 5.065785,-1.8015 2.0133698,0 3.7011218,0.5996 5.0580248,1.8015 0.56602,0.5013 1.041563,1.101 1.431844,1.804 z"
         style="fill:#000000;fill-opacity:1;fill-rule:evenodd;stroke:#1f1a17;stroke-width:0.0047492"
         inkscape:connector-curvature="0" />
    </g>
  </g>
</svg>
