<?xml version="1.0" encoding="UTF-8" standalone="no"?>
<svg
   xmlns:dc="http://purl.org/dc/elements/1.1/"
   xmlns:cc="http://creativecommons.org/ns#"
   xmlns:rdf="http://www.w3.org/1999/02/22-rdf-syntax-ns#"
   xmlns:svg="http://www.w3.org/2000/svg"
   xmlns="http://www.w3.org/2000/svg"
   xmlns:sodipodi="http://sodipodi.sourceforge.net/DTD/sodipodi-0.dtd"
   xmlns:inkscape="http://www.inkscape.org/namespaces/inkscape"
   width="240"
   height="240"
   viewBox="0 0 239.99985 239.99993"
   id="svg2"
   version="1.1"
   inkscape:version="0.48.4 r9939"
   sodipodi:docname="crowbar.svg">
  <metadata
     id="metadata9">
    <rdf:RDF>
      <cc:Work
         rdf:about="">
        <dc:format>image/svg+xml</dc:format>
        <dc:type
           rdf:resource="http://purl.org/dc/dcmitype/StillImage" />
      </cc:Work>
    </rdf:RDF>
  </metadata>
  <defs
     id="defs7" />
  <sodipodi:namedview
     pagecolor="#ffffff"
     bordercolor="#666666"
     borderopacity="1"
     objecttolerance="10"
     gridtolerance="10"
     guidetolerance="10"
     inkscape:pageopacity="0"
     inkscape:pageshadow="2"
     inkscape:window-width="1858"
     inkscape:window-height="1057"
     id="namedview5"
     showgrid="false"
     inkscape:zoom="2.8053484"
     inkscape:cx="141.81064"
     inkscape:cy="126.43258"
     inkscape:window-x="1592"
     inkscape:window-y="-8"
     inkscape:window-maximized="1"
     inkscape:current-layer="g3795" />
  <g
     id="g3795"
     transform="translate(2.2322991e-6,44.471206)">
    <path
       sodipodi:nodetypes="ccccccccsccccccccccsccscsc"
       inkscape:connector-curvature="0"
       d="m 185.69035,41.966837 15.20607,0.25296 -15.29278,-6.930654 -0.0237,-3.716029 m 0,0 c 23.27501,3.325785 21.41232,10.240622 27.19053,10.940324 0,0 20.0159,0.168789 21.89773,21.212518 0.4231,15.803942 -16.21812,20.03965 -27.80193,23.337649 -8.81604,1.12392 -14.46046,3.780315 -19.28477,8.857872 -4.14172,4.359123 -13.96375,15.427433 -13.96375,15.427433 0,0 -9.16,7.68462 -19.47116,3.74576 C 143.83536,111.16611 73.959934,76.333561 66.453409,73.518611 58.957196,70.703671 47.062013,69.444759 40.875316,73.373309 34.68862,77.312179 28.113486,80.379193 28.113486,80.379193 15.186485,85.810628 11.035237,84.593765 2.4961126,86.701052 L 14.993525,78.462283 3.028743,79.847984 3.9178353,73.663282 22.385124,70.204474 c 0,0 3.846063,2.06223 6.84661,2.06223 3.000549,0 17.907059,-8.299378 26.527189,-7.453858 11.084498,0.39182 104.424557,52.627054 105.826867,43.398564 4.21728,2.29939 20.0896,-19.442288 31.94744,-23.566748 11.85783,-4.12447 34.90344,-6.244057 34.47371,-22.862218 -0.56077,-10.63242 -6.34844,-13.71012 -13.38911,-13.998431 -8.77082,-0.359159 -20.59215,-2.020216 -28.92748,-5.817176"
       style="fill:#da7c08;fill-rule:evenodd;stroke:none;fill-opacity:1"
       id="path3770" />
    <path
       sodipodi:nodetypes="cccsccscccsccsccccc"
       inkscape:connector-curvature="0"
       d="m 185.91314,42.011394 c 17.38278,6.291352 24.61133,3.760416 31.92694,5.999825 1.96944,0.2784 9.73496,2.371586 10.16686,13.771225 0.42973,16.618161 -22.61588,18.737748 -34.47371,22.862218 -11.85784,4.12446 -27.73016,25.866138 -31.94744,23.566748 -1.40231,9.22849 -94.742369,-43.006744 -105.826867,-43.398564 -8.62013,-0.84552 -23.52664,7.453858 -26.527189,7.453858 -3.000547,0 -6.84661,-2.06223 -6.84661,-2.06223 L 3.9178353,73.663282 22.385124,64.857546 c 0,0 3.846063,2.06223 6.84661,2.06223 3.000549,0 17.528974,-6.66101 26.149104,-5.81549 11.084498,0.39182 104.802642,50.988684 106.204952,41.760194 4.21728,2.29939 19.33343,-18.560088 31.19127,-22.684548 11.85783,-4.12447 28.09791,-3.09335 31.44903,-19.333426 -1.06204,-8.248932 -5.92891,-9.207862 -7.89835,-9.486262 l -16.86905,-0.10312 -14.15723,-5.24838 z"
       style="fill:#f79721;stroke:none;fill-opacity:1"
       id="path2990" />
    <path
       sodipodi:nodetypes="ccccccsccccccccsccccccc"
       inkscape:connector-curvature="0"
       d="m 6.6399817,92.223362 23.9940703,-8.06332 c 0,0 4.495667,-2.24783 10.682363,-6.1867 6.186697,-3.92855 17.250573,-3.37175 24.746786,-0.55681 7.506525,2.81495 77.426509,36.934578 87.737669,40.863138 10.31116,3.93886 20.03458,-3.0418 20.03458,-3.0418 0,0 8.79543,-8.19737 11.98158,-12.88895 3.18614,-4.691568 11.42476,-10.991688 20.2408,-12.115608 8.13551,-2.18597 32.7998,-6.77443 31.36655,-27.252396 C 233.67112,37.481414 212.7704,39.079644 212.7704,39.079644 l -6.75381,-6.47541 -20.43672,-1.03112 c 23.27501,3.325785 21.41232,10.240622 27.19053,10.940324 0,0 20.0159,0.168789 21.89773,21.212518 0.4231,15.803942 -16.21812,20.03965 -27.80193,23.337649 -8.81604,1.12392 -14.46046,3.780315 -19.28477,8.857872 -4.14172,4.359123 -13.96375,15.427433 -13.96375,15.427433 0,0 -9.16,7.68462 -19.47116,3.74576 -10.31116,-3.92856 -80.186586,-38.761109 -87.693111,-41.576059 -7.496213,-2.81494 -19.391396,-4.073852 -25.578093,-0.145302 -6.186696,3.93887 -12.76183,7.005884 -12.76183,7.005884 -12.927001,5.431435 -17.078249,4.214572 -25.6173734,6.321859 z"
       style="fill:#b06708;stroke:none;fill-opacity:1"
       id="path3765" />
    <path
       id="path2993"
       d="m 3.9178353,73.663282 c 0,0 18.4672887,-8.805736 18.4672887,-8.805736 0,0 3.846063,2.06223 6.84661,2.06223 3.000549,0 17.528974,-6.66101 26.149104,-5.81549 11.084498,0.39182 104.802642,50.988684 106.204952,41.760194 4.21728,2.29939 19.33343,-18.560088 31.19127,-22.684548 11.85783,-4.12447 28.09791,-3.09335 31.44903,-19.333426 -1.06204,-8.248932 -5.92891,-9.207862 -7.89835,-9.486262 0,0 -16.86905,-0.10312 -16.86905,-0.10312 0,0 -14.15723,-5.24838 -14.15723,-5.24838 0,0 0.46401,-4.31007 0.46401,-4.31007 0,0 15.75545,0.65992 15.75545,0.65992 0,0 -15.75545,-6.93941 -15.75545,-6.93941 0,0 -0.1856,-3.84607 -0.1856,-3.84607 0,0 20.43672,1.03112 20.43672,1.03112 0,0 6.75381,6.47541 6.75381,6.47541 0,0 20.90072,-1.59823 24.65398,23.901272 1.43325,20.477966 -23.23104,25.066426 -31.36655,27.252396 -8.81604,1.12392 -17.05466,7.42404 -20.2408,12.115608 -3.18615,4.69158 -11.98158,12.88895 -11.98158,12.88895 0,0 -9.72342,6.98066 -20.03458,3.0418 -10.31116,-3.92856 -80.231144,-38.048188 -87.737669,-40.863138 -7.496213,-2.81494 -18.560089,-3.37174 -24.746786,0.55681 -6.186696,3.93887 -10.682363,6.1867 -10.682363,6.1867 0,0 -23.9940703,8.06332 -23.9940703,8.06332 0,0 -4.1244643,-5.61958 -4.1244643,-5.61958 0,0 13.4973096,-8.63044 13.4973096,-8.63044 0,0 -13.1261077,1.87663 -13.1261077,1.87663 0,0 1.031116,-6.18669 1.031116,-6.18669 z"
       inkscape:connector-curvature="0"
       style="fill:none;stroke:#000000;stroke-width:1.03111613" />
  </g>
</svg>
